<svg width="26" height="17" viewBox="0 0 26 17" fill="none" xmlns="http://www.w3.org/2000/svg">
<path d="M8.31696 0C3.72415 0 0 3.72415 0 8.31696C0 12.9098 3.72415 16.6339 8.31696 16.6339C12.9098 16.6339 16.6339 12.9098 16.6339 8.31696C16.6339 7.74633 16.5716 7.18955 16.463 6.65357L16.4168 6.46875H8.31696V9.24107H13.8616C13.4203 11.8632 11.0639 13.8616 8.31696 13.8616C5.25355 13.8616 2.77232 11.3804 2.77232 8.31696C2.77232 5.25355 5.25355 2.77232 8.31696 2.77232C9.70312 2.77232 10.9668 3.2852 11.9395 4.12614L13.9263 2.18089C12.4477 0.827076 10.4794 0 8.31696 0ZM21.2545 3.69643V6.46875H18.4821V8.31696H21.2545V11.0893H23.1027V8.31696H25.875V6.46875H23.1027V3.69643H21.2545Z" fill="black"/>
</svg>
