<svg width="26" height="21" viewBox="0 0 26 21" fill="none" xmlns="http://www.w3.org/2000/svg">
<path d="M25.5898 2.46094C24.6484 2.87891 23.6367 3.16016 22.5742 3.28906C23.6562 2.63672 24.4922 1.60938 24.8828 0.382813C23.8672 0.984375 22.7422 1.42187 21.5469 1.65625C20.5898 0.636719 19.2266 0 17.7148 0C14.8164 0 12.4648 2.35156 12.4648 5.25C12.4648 5.66016 12.5117 6.0625 12.6016 6.44531C8.23828 6.22656 4.37109 4.13281 1.78125 0.957032C1.32812 1.73438 1.07031 2.63672 1.07031 3.60156C1.07031 5.42188 1.99609 7.02734 3.40625 7.96875C2.54297 7.94141 1.73438 7.70703 1.02734 7.3125C1.02734 7.33594 1.02734 7.35547 1.02734 7.37891C1.02734 9.92188 2.83594 12.043 5.23828 12.5273C4.79688 12.6484 4.33594 12.7109 3.85547 12.7109C3.51563 12.7109 3.1875 12.6797 2.86719 12.6172C3.53516 14.6992 5.47266 16.2227 7.76953 16.2617C5.97656 17.6719 3.71094 18.5078 1.25 18.5078C0.824219 18.5078 0.410156 18.4844 0 18.4375C2.32031 19.9258 5.08203 20.793 8.04688 20.793C17.7031 20.793 22.9844 12.793 22.9844 5.85938C22.9844 5.62891 22.9805 5.40234 22.9688 5.17578C23.9961 4.44141 24.8867 3.51563 25.5898 2.46094Z" fill="black"/>
</svg>
