<svg width="23" height="23" viewBox="0 0 23 23" fill="none" xmlns="http://www.w3.org/2000/svg">
<path d="M6.79545 0C3.0475 0 0 3.0475 0 6.79545V16.2045C0 19.9525 3.0475 23 6.79545 23H16.2045C19.9525 23 23 19.9525 23 16.2045V6.79545C23 3.0475 19.9525 0 16.2045 0H6.79545ZM17.7727 4.18182C18.3477 4.18182 18.8182 4.65227 18.8182 5.22727C18.8182 5.80227 18.3477 6.27273 17.7727 6.27273C17.1977 6.27273 16.7273 5.80227 16.7273 5.22727C16.7273 4.65227 17.1977 4.18182 17.7727 4.18182ZM11.5 5.75C14.673 5.75 17.25 8.32705 17.25 11.5C17.25 14.673 14.673 17.25 11.5 17.25C8.32705 17.25 5.75 14.673 5.75 11.5C5.75 8.32705 8.32705 5.75 11.5 5.75ZM11.5 6.79545C8.90727 6.79545 6.79545 8.90727 6.79545 11.5C6.79545 14.0927 8.90727 16.2045 11.5 16.2045C14.0927 16.2045 16.2045 14.0927 16.2045 11.5C16.2045 8.90727 14.0927 6.79545 11.5 6.79545Z" fill="black"/>
</svg>
